<svg width="90" height="26" viewBox="0 0 90 26" fill="none" xmlns="http://www.w3.org/2000/svg">
<path d="M88.5691 11.23C88.0591 12.25 86.9791 12.74 86.1591 12.33C85.3391 11.92 85.0791 10.76 85.5891 9.74002C86.0891 8.73002 87.1691 8.24002 87.9891 8.65002C88.8091 9.06002 89.0691 10.22 88.5591 11.23M88.0291 8.49002C87.0191 7.98002 85.7391 8.47002 85.1791 9.59002C84.6191 10.72 84.9891 12.02 86.0091 12.53C87.0291 13.04 88.2991 12.53 88.8591 11.42C89.4191 10.31 89.0391 8.99003 88.0291 8.48003" fill="#272525"/>
<path d="M86.7193 10.26H87.0593C87.3793 10.26 87.5793 10.16 87.7093 9.92C87.7993 9.79 87.8493 9.62 87.8493 9.48C87.8493 9.22 87.6893 9.12 87.2493 9.12H86.9993L86.7193 10.26ZM86.6893 10.37L86.4493 11.33C86.4493 11.33 86.4293 11.42 86.4293 11.44C86.4293 11.55 86.4793 11.57 86.6893 11.59L86.6693 11.66C86.4493 11.64 86.3493 11.64 86.2393 11.64C86.1093 11.64 86.0293 11.64 85.7793 11.66L85.8093 11.59C86.0893 11.56 86.1293 11.54 86.1893 11.33L86.6793 9.34C86.6993 9.28 86.6993 9.25 86.6993 9.23C86.6993 9.12 86.6493 9.1 86.4293 9.08L86.4493 9H87.3393C87.6393 9 87.7993 9.04 87.9193 9.12C88.0293 9.21 88.0893 9.35 88.0893 9.52C88.0893 9.96 87.7393 10.31 87.2193 10.36C87.3693 10.4 87.4093 10.45 87.4693 10.67L87.5993 11.2C87.6693 11.47 87.7393 11.55 87.8893 11.55C87.9693 11.55 87.9893 11.55 88.1093 11.5L88.0793 11.61C87.9793 11.65 87.8793 11.68 87.7693 11.68C87.4893 11.68 87.4093 11.58 87.2993 11.14L87.1893 10.71C87.1093 10.39 87.0593 10.36 86.7493 10.36H86.6793L86.6893 10.37Z" fill="#272525"/>
<path d="M39.5499 19.45L37.5799 24.77H22.6699L22.8499 24.07C25.3699 23.86 25.7499 23.62 26.2099 21.8L30.5499 4.40005C30.6899 3.81005 30.7199 3.56004 30.7199 3.31004C30.7199 2.54004 30.1599 2.29005 28.3399 2.12005L28.5099 1.42004H42.7599L41.9899 6.31004H41.3199C41.2199 2.89004 40.7499 2.39005 37.5699 2.39005H33.3699L30.9599 12.02H38.8399L38.5599 13.1H30.6799L28.6899 21.15C28.5099 21.82 28.4499 22.34 28.4499 22.62C28.4499 23.42 29.1399 23.77 30.8299 23.77H33.4799C35.6499 23.77 36.4499 23.36 37.6099 21.68C38.1399 20.87 38.3899 20.45 38.8799 19.43H39.5399L39.5499 19.45Z" fill="#272525"/>
<path d="M64.1087 20.3001C63.1187 23.0701 61.8187 24.3801 60.1087 24.3801C58.5087 24.3801 57.6687 23.2201 57.6687 21.0401C57.6687 19.4201 58.0687 17.6301 58.8187 15.8101C59.7787 13.4901 60.9487 12.4201 62.5087 12.4201H62.6487C64.1987 12.5001 64.9587 13.6101 64.9587 15.7801C64.9587 17.1901 64.6587 18.7601 64.1087 20.2901M84.1787 22.7201C83.3787 23.7401 83.0487 24.0101 82.5787 24.0101C82.1587 24.0101 81.8887 23.6801 81.8887 23.1501C81.8887 22.8301 81.9787 22.4001 82.1587 21.6301L82.3887 20.8101L83.5487 16.0601C83.7687 15.2601 83.8787 14.5201 83.8787 14.0801C83.8787 12.5901 82.7987 11.6501 81.1187 11.6501C79.6287 11.6501 78.5287 12.2901 77.3487 13.8001C77.0887 12.3401 76.2687 11.6501 74.6987 11.6501C73.1287 11.6501 72.0587 12.2601 70.8987 13.7101C71.1187 12.8701 71.3187 12.1601 71.5087 11.3501C70.3487 11.7601 68.2687 13.4601 64.5387 11.9901C64.4887 11.9601 64.4487 11.9501 64.3887 11.9301C64.3687 11.9201 64.3587 11.9101 64.3287 11.9001C63.8887 11.7401 63.3987 11.6401 62.8287 11.6201H62.6087C61.1187 11.6201 59.8487 12.1201 58.8287 13.0801C57.8687 13.9901 57.0887 15.3001 56.5787 16.7501C56.5187 16.9801 56.4087 17.2101 56.3387 17.4301C55.0987 21.5101 52.4987 23.9301 49.3387 23.9301C46.3587 23.9301 44.5787 21.7301 44.5787 18.0901C44.5787 15.2201 45.3187 11.6401 46.4687 8.74006C48.3887 4.09005 51.0087 1.74006 54.3387 1.74006C57.0787 1.74006 58.7187 3.45006 58.7187 6.33006C58.7187 6.85006 58.6887 7.14006 58.5787 7.80006H59.3887L60.6187 1.99006C60.1587 2.23006 59.9487 2.31005 59.6387 2.31005C59.3887 2.31005 59.0787 2.21006 58.6987 2.03006L57.5087 1.47006C56.6387 1.05006 55.5087 0.810059 54.2887 0.810059C51.4887 0.810059 48.9787 1.97006 47.0787 4.07006C44.0687 7.36006 42.1387 12.6501 42.1387 17.5501C42.1387 22.4501 44.5887 25.1401 48.8987 25.1401C51.8287 25.1401 54.2387 23.7501 55.9487 21.1201C56.1087 23.6901 57.5487 25.1301 60.0087 25.1301C63.7787 25.1301 66.7087 21.1901 66.7087 16.1301C66.7087 15.1401 66.5387 14.3101 66.2287 13.6401C68.0187 14.0401 69.4887 12.8901 69.4887 13.2301C69.4887 13.2701 69.4687 13.3801 69.4487 13.4701C69.4187 13.6001 69.0887 14.9601 69.0887 14.9601L66.5687 24.9101H68.2787L70.3187 16.7601C70.5887 15.6701 70.7887 15.1701 71.1687 14.5701C71.8887 13.4701 72.9287 12.8301 73.9787 12.8301C75.0287 12.8301 75.6487 13.4101 75.6487 14.4001C75.6487 14.8401 75.5687 15.3701 75.3787 16.1101L73.1887 24.9101H74.8987L77.0187 16.3501C77.5687 14.1201 78.8687 12.8201 80.4887 12.8201C81.4787 12.8201 82.1087 13.4201 82.1087 14.3701C82.1087 14.7201 82.0287 15.3801 81.8587 16.0401L80.7587 20.4001C80.2587 22.3501 80.1487 22.9601 80.1487 23.4801C80.1487 24.4701 80.8587 25.1601 81.9087 25.1601C82.9587 25.1601 83.7287 24.5901 84.6087 23.0901L84.1687 22.7101L84.1787 22.7201Z" fill="#272525"/>
<path d="M23.8291 1.53009C23.0991 1.53009 22.4991 1.49009 20.5091 1.36009L20.3391 2.02008C22.0091 2.19008 22.5791 2.54008 22.5791 3.45008C22.5791 3.77008 22.5091 4.26009 22.4091 4.75009L18.5491 20.7401L11.5891 1.35009C10.6091 1.42009 10.2191 1.45009 9.27914 1.45009C8.33914 1.45009 7.84914 1.42009 6.71914 1.35009L6.53914 2.01009C8.35914 2.12009 8.67914 2.26009 9.12914 2.92009L5.56914 17.2401C4.72914 20.5601 4.09914 22.6001 3.70914 23.1201C3.28914 23.7501 2.58914 24.0301 1.04914 24.1701L0.869141 24.8701C2.78914 24.6901 3.38914 24.6601 4.15914 24.6601C4.92914 24.6601 5.41914 24.6901 7.51914 24.8701L7.68914 24.1701C6.03914 24.0001 5.52914 23.6401 5.52914 22.7701C5.52914 22.4501 5.56914 22.2101 5.84914 20.8501L6.18914 19.2301L6.67914 17.2401L10.0791 3.10009L17.7891 25.1401H18.4291L23.3091 5.68009C23.9391 3.05009 24.7091 2.28009 26.9191 2.00009L27.0991 1.34009C25.2391 1.48009 24.6491 1.51009 23.8391 1.51009" fill="#272525"/>
</svg>
